<mxfile host="app.diagrams.net" modified="2023-05-22T13:54:43.520Z" agent="Mozilla/5.0 (Windows NT 10.0; Win64; x64; rv:109.0) Gecko/20100101 Firefox/113.0" etag="P1fZwV8v4eqbRoYh3Hai" version="21.3.2" type="gitlab">
  <diagram name="Page-1" id="gDrgruxCSNrPCZ8K3_lu">
    <mxGraphModel dx="1221" dy="761" grid="1" gridSize="10" guides="1" tooltips="1" connect="1" arrows="1" fold="1" page="1" pageScale="1" pageWidth="827" pageHeight="1169" math="0" shadow="0">
      <root>
        <mxCell id="0" />
        <mxCell id="1" parent="0" />
        <mxCell id="-zvhFlnZt-n_GAPElZkb-3" value="Activity" style="swimlane;fontStyle=0;childLayout=stackLayout;horizontal=1;startSize=30;horizontalStack=0;resizeParent=1;resizeParentMax=0;resizeLast=0;collapsible=1;marginBottom=0;whiteSpace=wrap;html=1;" vertex="1" parent="1">
          <mxGeometry x="209" y="127" width="160" height="328" as="geometry" />
        </mxCell>
        <mxCell id="-zvhFlnZt-n_GAPElZkb-4" value="id: number" style="text;strokeColor=none;fillColor=none;align=left;verticalAlign=middle;spacingLeft=4;spacingRight=4;overflow=hidden;points=[[0,0.5],[1,0.5]];portConstraint=eastwest;rotatable=0;whiteSpace=wrap;html=1;" vertex="1" parent="-zvhFlnZt-n_GAPElZkb-3">
          <mxGeometry y="30" width="160" height="30" as="geometry" />
        </mxCell>
        <mxCell id="-zvhFlnZt-n_GAPElZkb-5" value="title: string" style="text;strokeColor=none;fillColor=none;align=left;verticalAlign=middle;spacingLeft=4;spacingRight=4;overflow=hidden;points=[[0,0.5],[1,0.5]];portConstraint=eastwest;rotatable=0;whiteSpace=wrap;html=1;" vertex="1" parent="-zvhFlnZt-n_GAPElZkb-3">
          <mxGeometry y="60" width="160" height="30" as="geometry" />
        </mxCell>
        <mxCell id="-zvhFlnZt-n_GAPElZkb-6" value="description: string" style="text;strokeColor=none;fillColor=none;align=left;verticalAlign=middle;spacingLeft=4;spacingRight=4;overflow=hidden;points=[[0,0.5],[1,0.5]];portConstraint=eastwest;rotatable=0;whiteSpace=wrap;html=1;" vertex="1" parent="-zvhFlnZt-n_GAPElZkb-3">
          <mxGeometry y="90" width="160" height="30" as="geometry" />
        </mxCell>
        <mxCell id="-zvhFlnZt-n_GAPElZkb-43" value="startDate: Date" style="text;strokeColor=none;fillColor=none;align=left;verticalAlign=top;spacingLeft=4;spacingRight=4;overflow=hidden;rotatable=0;points=[[0,0.5],[1,0.5]];portConstraint=eastwest;whiteSpace=wrap;html=1;" vertex="1" parent="-zvhFlnZt-n_GAPElZkb-3">
          <mxGeometry y="120" width="160" height="26" as="geometry" />
        </mxCell>
        <mxCell id="-zvhFlnZt-n_GAPElZkb-42" value="endDate: Date" style="text;strokeColor=none;fillColor=none;align=left;verticalAlign=top;spacingLeft=4;spacingRight=4;overflow=hidden;rotatable=0;points=[[0,0.5],[1,0.5]];portConstraint=eastwest;whiteSpace=wrap;html=1;" vertex="1" parent="-zvhFlnZt-n_GAPElZkb-3">
          <mxGeometry y="146" width="160" height="26" as="geometry" />
        </mxCell>
        <mxCell id="-zvhFlnZt-n_GAPElZkb-44" value="numberPersonMax: number" style="text;strokeColor=none;fillColor=none;align=left;verticalAlign=top;spacingLeft=4;spacingRight=4;overflow=hidden;rotatable=0;points=[[0,0.5],[1,0.5]];portConstraint=eastwest;whiteSpace=wrap;html=1;" vertex="1" parent="-zvhFlnZt-n_GAPElZkb-3">
          <mxGeometry y="172" width="160" height="26" as="geometry" />
        </mxCell>
        <mxCell id="-zvhFlnZt-n_GAPElZkb-45" value="cost: number" style="text;strokeColor=none;fillColor=none;align=left;verticalAlign=top;spacingLeft=4;spacingRight=4;overflow=hidden;rotatable=0;points=[[0,0.5],[1,0.5]];portConstraint=eastwest;whiteSpace=wrap;html=1;" vertex="1" parent="-zvhFlnZt-n_GAPElZkb-3">
          <mxGeometry y="198" width="160" height="26" as="geometry" />
        </mxCell>
        <mxCell id="-zvhFlnZt-n_GAPElZkb-46" value="place: string" style="text;strokeColor=none;fillColor=none;align=left;verticalAlign=top;spacingLeft=4;spacingRight=4;overflow=hidden;rotatable=0;points=[[0,0.5],[1,0.5]];portConstraint=eastwest;whiteSpace=wrap;html=1;" vertex="1" parent="-zvhFlnZt-n_GAPElZkb-3">
          <mxGeometry y="224" width="160" height="26" as="geometry" />
        </mxCell>
        <mxCell id="-zvhFlnZt-n_GAPElZkb-47" value="longitude: number" style="text;strokeColor=none;fillColor=none;align=left;verticalAlign=top;spacingLeft=4;spacingRight=4;overflow=hidden;rotatable=0;points=[[0,0.5],[1,0.5]];portConstraint=eastwest;whiteSpace=wrap;html=1;" vertex="1" parent="-zvhFlnZt-n_GAPElZkb-3">
          <mxGeometry y="250" width="160" height="26" as="geometry" />
        </mxCell>
        <mxCell id="-zvhFlnZt-n_GAPElZkb-48" value="latitude: number" style="text;strokeColor=none;fillColor=none;align=left;verticalAlign=top;spacingLeft=4;spacingRight=4;overflow=hidden;rotatable=0;points=[[0,0.5],[1,0.5]];portConstraint=eastwest;whiteSpace=wrap;html=1;" vertex="1" parent="-zvhFlnZt-n_GAPElZkb-3">
          <mxGeometry y="276" width="160" height="26" as="geometry" />
        </mxCell>
        <mxCell id="-zvhFlnZt-n_GAPElZkb-49" value="category: Category" style="text;strokeColor=none;fillColor=none;align=left;verticalAlign=top;spacingLeft=4;spacingRight=4;overflow=hidden;rotatable=0;points=[[0,0.5],[1,0.5]];portConstraint=eastwest;whiteSpace=wrap;html=1;" vertex="1" parent="-zvhFlnZt-n_GAPElZkb-3">
          <mxGeometry y="302" width="160" height="26" as="geometry" />
        </mxCell>
        <mxCell id="-zvhFlnZt-n_GAPElZkb-7" value="User" style="swimlane;fontStyle=0;childLayout=stackLayout;horizontal=1;startSize=30;horizontalStack=0;resizeParent=1;resizeParentMax=0;resizeLast=0;collapsible=1;marginBottom=0;whiteSpace=wrap;html=1;" vertex="1" parent="1">
          <mxGeometry x="639" y="235" width="140" height="146" as="geometry" />
        </mxCell>
        <mxCell id="-zvhFlnZt-n_GAPElZkb-8" value="id: number" style="text;strokeColor=none;fillColor=none;align=left;verticalAlign=middle;spacingLeft=4;spacingRight=4;overflow=hidden;points=[[0,0.5],[1,0.5]];portConstraint=eastwest;rotatable=0;whiteSpace=wrap;html=1;" vertex="1" parent="-zvhFlnZt-n_GAPElZkb-7">
          <mxGeometry y="30" width="140" height="30" as="geometry" />
        </mxCell>
        <mxCell id="-zvhFlnZt-n_GAPElZkb-9" value="name: string" style="text;strokeColor=none;fillColor=none;align=left;verticalAlign=middle;spacingLeft=4;spacingRight=4;overflow=hidden;points=[[0,0.5],[1,0.5]];portConstraint=eastwest;rotatable=0;whiteSpace=wrap;html=1;" vertex="1" parent="-zvhFlnZt-n_GAPElZkb-7">
          <mxGeometry y="60" width="140" height="30" as="geometry" />
        </mxCell>
        <mxCell id="-zvhFlnZt-n_GAPElZkb-10" value="email: string" style="text;strokeColor=none;fillColor=none;align=left;verticalAlign=middle;spacingLeft=4;spacingRight=4;overflow=hidden;points=[[0,0.5],[1,0.5]];portConstraint=eastwest;rotatable=0;whiteSpace=wrap;html=1;" vertex="1" parent="-zvhFlnZt-n_GAPElZkb-7">
          <mxGeometry y="90" width="140" height="30" as="geometry" />
        </mxCell>
        <mxCell id="-zvhFlnZt-n_GAPElZkb-36" value="passhash: string" style="text;strokeColor=none;fillColor=none;align=left;verticalAlign=top;spacingLeft=4;spacingRight=4;overflow=hidden;rotatable=0;points=[[0,0.5],[1,0.5]];portConstraint=eastwest;whiteSpace=wrap;html=1;" vertex="1" parent="-zvhFlnZt-n_GAPElZkb-7">
          <mxGeometry y="120" width="140" height="26" as="geometry" />
        </mxCell>
        <mxCell id="-zvhFlnZt-n_GAPElZkb-12" value="&lt;div&gt;Messages&lt;/div&gt;" style="swimlane;fontStyle=0;childLayout=stackLayout;horizontal=1;startSize=30;horizontalStack=0;resizeParent=1;resizeParentMax=0;resizeLast=0;collapsible=1;marginBottom=0;whiteSpace=wrap;html=1;" vertex="1" parent="1">
          <mxGeometry x="449" y="410" width="140" height="120" as="geometry" />
        </mxCell>
        <mxCell id="-zvhFlnZt-n_GAPElZkb-13" value="id: number" style="text;strokeColor=none;fillColor=none;align=left;verticalAlign=middle;spacingLeft=4;spacingRight=4;overflow=hidden;points=[[0,0.5],[1,0.5]];portConstraint=eastwest;rotatable=0;whiteSpace=wrap;html=1;" vertex="1" parent="-zvhFlnZt-n_GAPElZkb-12">
          <mxGeometry y="30" width="140" height="30" as="geometry" />
        </mxCell>
        <mxCell id="-zvhFlnZt-n_GAPElZkb-14" value="content: string" style="text;strokeColor=none;fillColor=none;align=left;verticalAlign=middle;spacingLeft=4;spacingRight=4;overflow=hidden;points=[[0,0.5],[1,0.5]];portConstraint=eastwest;rotatable=0;whiteSpace=wrap;html=1;" vertex="1" parent="-zvhFlnZt-n_GAPElZkb-12">
          <mxGeometry y="60" width="140" height="30" as="geometry" />
        </mxCell>
        <mxCell id="-zvhFlnZt-n_GAPElZkb-15" value="createdAt: Date" style="text;strokeColor=none;fillColor=none;align=left;verticalAlign=middle;spacingLeft=4;spacingRight=4;overflow=hidden;points=[[0,0.5],[1,0.5]];portConstraint=eastwest;rotatable=0;whiteSpace=wrap;html=1;" vertex="1" parent="-zvhFlnZt-n_GAPElZkb-12">
          <mxGeometry y="90" width="140" height="30" as="geometry" />
        </mxCell>
        <mxCell id="-zvhFlnZt-n_GAPElZkb-16" value="" style="endArrow=none;html=1;edgeStyle=orthogonalEdgeStyle;rounded=0;entryX=0;entryY=0.5;entryDx=0;entryDy=0;" edge="1" parent="1" source="-zvhFlnZt-n_GAPElZkb-3" target="-zvhFlnZt-n_GAPElZkb-14">
          <mxGeometry relative="1" as="geometry">
            <mxPoint x="429" y="485" as="sourcePoint" />
            <mxPoint x="589" y="485" as="targetPoint" />
            <Array as="points">
              <mxPoint x="296" y="485" />
            </Array>
          </mxGeometry>
        </mxCell>
        <mxCell id="-zvhFlnZt-n_GAPElZkb-17" value="1" style="edgeLabel;resizable=0;html=1;align=left;verticalAlign=bottom;" connectable="0" vertex="1" parent="-zvhFlnZt-n_GAPElZkb-16">
          <mxGeometry x="-1" relative="1" as="geometry">
            <mxPoint x="-17" y="25" as="offset" />
          </mxGeometry>
        </mxCell>
        <mxCell id="-zvhFlnZt-n_GAPElZkb-18" value="*" style="edgeLabel;resizable=0;html=1;align=right;verticalAlign=bottom;" connectable="0" vertex="1" parent="-zvhFlnZt-n_GAPElZkb-16">
          <mxGeometry x="1" relative="1" as="geometry">
            <mxPoint x="-20" y="-5" as="offset" />
          </mxGeometry>
        </mxCell>
        <mxCell id="-zvhFlnZt-n_GAPElZkb-19" value="ActivityRegistration" style="swimlane;fontStyle=0;childLayout=stackLayout;horizontal=1;startSize=30;horizontalStack=0;resizeParent=1;resizeParentMax=0;resizeLast=0;collapsible=1;marginBottom=0;whiteSpace=wrap;html=1;" vertex="1" parent="1">
          <mxGeometry x="443" y="170" width="140" height="60" as="geometry" />
        </mxCell>
        <mxCell id="-zvhFlnZt-n_GAPElZkb-24" value="" style="endArrow=none;html=1;edgeStyle=orthogonalEdgeStyle;rounded=0;entryX=0;entryY=0.5;entryDx=0;entryDy=0;" edge="1" parent="1" source="-zvhFlnZt-n_GAPElZkb-3">
          <mxGeometry relative="1" as="geometry">
            <mxPoint x="369" y="272" as="sourcePoint" />
            <mxPoint x="639" y="272" as="targetPoint" />
            <Array as="points">
              <mxPoint x="579" y="272" />
              <mxPoint x="579" y="272" />
            </Array>
          </mxGeometry>
        </mxCell>
        <mxCell id="-zvhFlnZt-n_GAPElZkb-25" value="*" style="edgeLabel;resizable=0;html=1;align=left;verticalAlign=bottom;" connectable="0" vertex="1" parent="-zvhFlnZt-n_GAPElZkb-24">
          <mxGeometry x="-1" relative="1" as="geometry">
            <mxPoint x="10" as="offset" />
          </mxGeometry>
        </mxCell>
        <mxCell id="-zvhFlnZt-n_GAPElZkb-26" value="*" style="edgeLabel;resizable=0;html=1;align=right;verticalAlign=bottom;" connectable="0" vertex="1" parent="-zvhFlnZt-n_GAPElZkb-24">
          <mxGeometry x="1" relative="1" as="geometry">
            <mxPoint x="-10" as="offset" />
          </mxGeometry>
        </mxCell>
        <mxCell id="-zvhFlnZt-n_GAPElZkb-27" value="" style="endArrow=none;html=1;edgeStyle=orthogonalEdgeStyle;rounded=0;dashed=1;" edge="1" parent="1" source="-zvhFlnZt-n_GAPElZkb-19">
          <mxGeometry relative="1" as="geometry">
            <mxPoint x="515.04" y="199.01" as="sourcePoint" />
            <mxPoint x="513" y="270" as="targetPoint" />
            <Array as="points">
              <mxPoint x="513" y="240" />
              <mxPoint x="513" y="240" />
            </Array>
          </mxGeometry>
        </mxCell>
        <mxCell id="-zvhFlnZt-n_GAPElZkb-30" value="" style="endArrow=none;html=1;edgeStyle=orthogonalEdgeStyle;rounded=0;" edge="1" parent="1" source="-zvhFlnZt-n_GAPElZkb-3" target="-zvhFlnZt-n_GAPElZkb-7">
          <mxGeometry relative="1" as="geometry">
            <mxPoint x="369" y="321" as="sourcePoint" />
            <mxPoint x="639" y="310" as="targetPoint" />
            <Array as="points">
              <mxPoint x="399" y="322" />
              <mxPoint x="399" y="322" />
            </Array>
          </mxGeometry>
        </mxCell>
        <mxCell id="-zvhFlnZt-n_GAPElZkb-31" value="*" style="edgeLabel;resizable=0;html=1;align=left;verticalAlign=bottom;" connectable="0" vertex="1" parent="-zvhFlnZt-n_GAPElZkb-30">
          <mxGeometry x="-1" relative="1" as="geometry">
            <mxPoint x="12" y="19" as="offset" />
          </mxGeometry>
        </mxCell>
        <mxCell id="-zvhFlnZt-n_GAPElZkb-32" value="1" style="edgeLabel;resizable=0;html=1;align=right;verticalAlign=bottom;" connectable="0" vertex="1" parent="-zvhFlnZt-n_GAPElZkb-30">
          <mxGeometry x="1" relative="1" as="geometry">
            <mxPoint x="-10" y="18" as="offset" />
          </mxGeometry>
        </mxCell>
        <mxCell id="-zvhFlnZt-n_GAPElZkb-33" value="" style="endArrow=none;html=1;edgeStyle=orthogonalEdgeStyle;rounded=0;" edge="1" parent="1" source="-zvhFlnZt-n_GAPElZkb-12" target="-zvhFlnZt-n_GAPElZkb-7">
          <mxGeometry relative="1" as="geometry">
            <mxPoint x="409" y="330" as="sourcePoint" />
            <mxPoint x="679" y="420" as="targetPoint" />
            <Array as="points">
              <mxPoint x="709" y="479" />
            </Array>
          </mxGeometry>
        </mxCell>
        <mxCell id="-zvhFlnZt-n_GAPElZkb-34" value="*" style="edgeLabel;resizable=0;html=1;align=left;verticalAlign=bottom;" connectable="0" vertex="1" parent="-zvhFlnZt-n_GAPElZkb-33">
          <mxGeometry x="-1" relative="1" as="geometry">
            <mxPoint x="9" as="offset" />
          </mxGeometry>
        </mxCell>
        <mxCell id="-zvhFlnZt-n_GAPElZkb-35" value="1" style="edgeLabel;resizable=0;html=1;align=right;verticalAlign=bottom;" connectable="0" vertex="1" parent="-zvhFlnZt-n_GAPElZkb-33">
          <mxGeometry x="1" relative="1" as="geometry">
            <mxPoint x="31" y="23" as="offset" />
          </mxGeometry>
        </mxCell>
        <mxCell id="-zvhFlnZt-n_GAPElZkb-37" value="owns" style="text;align=center;fontStyle=1;verticalAlign=middle;spacingLeft=3;spacingRight=3;strokeColor=none;rotatable=0;points=[[0,0.5],[1,0.5]];portConstraint=eastwest;html=1;" vertex="1" parent="1">
          <mxGeometry x="473" y="320" width="80" height="26" as="geometry" />
        </mxCell>
        <mxCell id="-zvhFlnZt-n_GAPElZkb-38" value="participates in" style="text;align=center;fontStyle=1;verticalAlign=middle;spacingLeft=3;spacingRight=3;strokeColor=none;rotatable=0;points=[[0,0.5],[1,0.5]];portConstraint=eastwest;html=1;" vertex="1" parent="1">
          <mxGeometry x="473" y="270" width="80" height="26" as="geometry" />
        </mxCell>
        <mxCell id="-zvhFlnZt-n_GAPElZkb-39" value="sends" style="text;align=center;fontStyle=1;verticalAlign=middle;spacingLeft=3;spacingRight=3;strokeColor=none;rotatable=0;points=[[0,0.5],[1,0.5]];portConstraint=eastwest;html=1;" vertex="1" parent="1">
          <mxGeometry x="639" y="440" width="80" height="26" as="geometry" />
        </mxCell>
        <mxCell id="-zvhFlnZt-n_GAPElZkb-40" value="has" style="text;align=center;fontStyle=1;verticalAlign=middle;spacingLeft=3;spacingRight=3;strokeColor=none;rotatable=0;points=[[0,0.5],[1,0.5]];portConstraint=eastwest;html=1;" vertex="1" parent="1">
          <mxGeometry x="299" y="457" width="80" height="26" as="geometry" />
        </mxCell>
        <mxCell id="-zvhFlnZt-n_GAPElZkb-51" value="&lt;div&gt;&amp;lt;&amp;lt;enum&amp;gt;&amp;gt;&lt;br&gt;&lt;/div&gt;&lt;div&gt;Category&lt;/div&gt;" style="swimlane;fontStyle=0;childLayout=stackLayout;horizontal=1;startSize=30;horizontalStack=0;resizeParent=1;resizeParentMax=0;resizeLast=0;collapsible=1;marginBottom=0;whiteSpace=wrap;html=1;" vertex="1" parent="1">
          <mxGeometry x="36" y="170" width="140" height="264" as="geometry" />
        </mxCell>
        <mxCell id="-zvhFlnZt-n_GAPElZkb-53" value="Sport" style="text;strokeColor=none;fillColor=none;align=left;verticalAlign=top;spacingLeft=4;spacingRight=4;overflow=hidden;rotatable=0;points=[[0,0.5],[1,0.5]];portConstraint=eastwest;whiteSpace=wrap;html=1;" vertex="1" parent="-zvhFlnZt-n_GAPElZkb-51">
          <mxGeometry y="30" width="140" height="26" as="geometry" />
        </mxCell>
        <mxCell id="-zvhFlnZt-n_GAPElZkb-54" value="Livre" style="text;strokeColor=none;fillColor=none;align=left;verticalAlign=top;spacingLeft=4;spacingRight=4;overflow=hidden;rotatable=0;points=[[0,0.5],[1,0.5]];portConstraint=eastwest;whiteSpace=wrap;html=1;" vertex="1" parent="-zvhFlnZt-n_GAPElZkb-51">
          <mxGeometry y="56" width="140" height="26" as="geometry" />
        </mxCell>
        <mxCell id="-zvhFlnZt-n_GAPElZkb-55" value="Art" style="text;strokeColor=none;fillColor=none;align=left;verticalAlign=top;spacingLeft=4;spacingRight=4;overflow=hidden;rotatable=0;points=[[0,0.5],[1,0.5]];portConstraint=eastwest;whiteSpace=wrap;html=1;" vertex="1" parent="-zvhFlnZt-n_GAPElZkb-51">
          <mxGeometry y="82" width="140" height="26" as="geometry" />
        </mxCell>
        <mxCell id="-zvhFlnZt-n_GAPElZkb-56" value="Bar" style="text;strokeColor=none;fillColor=none;align=left;verticalAlign=top;spacingLeft=4;spacingRight=4;overflow=hidden;rotatable=0;points=[[0,0.5],[1,0.5]];portConstraint=eastwest;whiteSpace=wrap;html=1;" vertex="1" parent="-zvhFlnZt-n_GAPElZkb-51">
          <mxGeometry y="108" width="140" height="26" as="geometry" />
        </mxCell>
        <mxCell id="-zvhFlnZt-n_GAPElZkb-57" value="Cinéma" style="text;strokeColor=none;fillColor=none;align=left;verticalAlign=top;spacingLeft=4;spacingRight=4;overflow=hidden;rotatable=0;points=[[0,0.5],[1,0.5]];portConstraint=eastwest;whiteSpace=wrap;html=1;" vertex="1" parent="-zvhFlnZt-n_GAPElZkb-51">
          <mxGeometry y="134" width="140" height="26" as="geometry" />
        </mxCell>
        <mxCell id="-zvhFlnZt-n_GAPElZkb-58" value="Jeux de société" style="text;strokeColor=none;fillColor=none;align=left;verticalAlign=top;spacingLeft=4;spacingRight=4;overflow=hidden;rotatable=0;points=[[0,0.5],[1,0.5]];portConstraint=eastwest;whiteSpace=wrap;html=1;" vertex="1" parent="-zvhFlnZt-n_GAPElZkb-51">
          <mxGeometry y="160" width="140" height="26" as="geometry" />
        </mxCell>
        <mxCell id="-zvhFlnZt-n_GAPElZkb-59" value="Musique" style="text;strokeColor=none;fillColor=none;align=left;verticalAlign=top;spacingLeft=4;spacingRight=4;overflow=hidden;rotatable=0;points=[[0,0.5],[1,0.5]];portConstraint=eastwest;whiteSpace=wrap;html=1;" vertex="1" parent="-zvhFlnZt-n_GAPElZkb-51">
          <mxGeometry y="186" width="140" height="26" as="geometry" />
        </mxCell>
        <mxCell id="-zvhFlnZt-n_GAPElZkb-60" value="Travaux manuels" style="text;strokeColor=none;fillColor=none;align=left;verticalAlign=top;spacingLeft=4;spacingRight=4;overflow=hidden;rotatable=0;points=[[0,0.5],[1,0.5]];portConstraint=eastwest;whiteSpace=wrap;html=1;" vertex="1" parent="-zvhFlnZt-n_GAPElZkb-51">
          <mxGeometry y="212" width="140" height="26" as="geometry" />
        </mxCell>
        <mxCell id="-zvhFlnZt-n_GAPElZkb-62" value="Autres" style="text;strokeColor=none;fillColor=none;align=left;verticalAlign=top;spacingLeft=4;spacingRight=4;overflow=hidden;rotatable=0;points=[[0,0.5],[1,0.5]];portConstraint=eastwest;whiteSpace=wrap;html=1;" vertex="1" parent="-zvhFlnZt-n_GAPElZkb-51">
          <mxGeometry y="238" width="140" height="26" as="geometry" />
        </mxCell>
      </root>
    </mxGraphModel>
  </diagram>
</mxfile>
